<svg width="96" height="96" viewBox="0 0 96 96" xmlns="http://www.w3.org/2000/svg"><title>B3E222B2-C2DD-4AD6-9C37-1AF9EDD5B56F</title><g fill="#FFF" fill-rule="evenodd"><path d="M39.007 60.425c.878 0 1.755.296 2.495.887L52.877 70.4c3.277 2.616 7.854 2.653 11.13.09A26.067 26.067 0 0 0 73.96 48.54c-.706-12.928-11.38-23.683-24.297-24.487-7.272-.456-14.182 2.035-19.465 7C24.91 36.021 22 42.75 22 50.001a25.875 25.875 0 0 0 4.256 14.251c1.72 2.618 4.195 4.795 7.155 6.292.9.456 1.742.143 2.229-.306.488-.446.875-1.256.5-2.193l-.85-2.124a3.953 3.953 0 0 1 1.33-4.696 3.991 3.991 0 0 1 2.387-.8m19.507 13.962c-2.43.001-4.86-.81-6.885-2.427l-11.375-9.087c-.89-.708-1.843-.488-2.441-.043-.598.445-1.087 1.294-.665 2.35l.85 2.123a3.949 3.949 0 0 1-1.007 4.411 3.949 3.949 0 0 1-4.484.615c-3.27-1.655-6.01-4.068-7.922-6.979A27.867 27.867 0 0 1 20 50.002a28.109 28.109 0 0 1 8.828-20.406c5.689-5.348 13.12-8.033 20.959-7.538 13.914.865 25.409 12.45 26.17 26.374A28.071 28.071 0 0 1 65.24 72.064a10.895 10.895 0 0 1-6.726 2.324"/><path d="M65 47.002c-1.103 0-2 .897-2 2s.897 2 2 2 2-.897 2-2-.897-2-2-2m0 6c-2.206 0-4-1.794-4-4s1.794-4 4-4 4 1.794 4 4-1.794 4-4 4M61 59.002c-1.103 0-2 .897-2 2s.897 2 2 2 2-.897 2-2-.897-2-2-2m0 6c-2.206 0-4-1.794-4-4s1.794-4 4-4 4 1.794 4 4-1.794 4-4 4M48.022 53.62c-.045 0-.09 0-.135.003-.899.03-1.643.384-2.096.992-.453.609-.577 1.423-.349 2.293.249.95.877 1.839 1.767 2.5.89.664 1.929.995 2.904.976.899-.032 1.643-.384 2.096-.993.988-1.328.352-3.478-1.418-4.794-.849-.633-1.828-.977-2.769-.977m1.958 8.766c-1.37 0-2.771-.484-3.965-1.371-1.253-.933-2.143-2.211-2.507-3.6-.385-1.47-.144-2.89.679-3.993.822-1.107 2.112-1.744 3.63-1.798 1.424-.044 2.915.435 4.168 1.367 2.654 1.976 3.474 5.382 1.829 7.594-.823 1.106-2.113 1.744-3.631 1.798a6.87 6.87 0 0 1-.203.003M59 35.002c-1.103 0-2 .897-2 2s.897 2 2 2 2-.897 2-2-.897-2-2-2m0 6c-2.206 0-4-1.794-4-4s1.794-4 4-4 4 1.794 4 4-1.794 4-4 4M47 31.002c-1.103 0-2 .897-2 2s.897 2 2 2 2-.897 2-2-.897-2-2-2m0 6c-2.206 0-4-1.794-4-4s1.794-4 4-4 4 1.794 4 4-1.794 4-4 4M35 37.002c-1.103 0-2 .897-2 2s.897 2 2 2 2-.897 2-2-.897-2-2-2m0 6c-2.206 0-4-1.794-4-4s1.794-4 4-4 4 1.794 4 4-1.794 4-4 4M31 49.002c-1.103 0-2 .897-2 2s.897 2 2 2 2-.897 2-2-.897-2-2-2m0 6c-2.206 0-4-1.794-4-4s1.794-4 4-4 4 1.794 4 4-1.794 4-4 4"/></g></svg>