<svg width="96" height="96" viewBox="0 0 96 96" xmlns="http://www.w3.org/2000/svg"><title>8373E138-EBAF-4898-AA42-FEF57F428772</title><g fill="#FFF" fill-rule="evenodd"><path d="M76.999 29.004a1 1 0 0 1-.993-.89c-.133-1.216-1.101-2.133-2.249-2.133-.51 0-.992.177-1.395.514a.998.998 0 0 1-1.482-.225c-.51-.792-1.354-1.266-2.256-1.266-.688 0-1.346.274-1.852.772a1 1 0 0 1-1.404-1.423 4.62 4.62 0 0 1 3.256-1.349c1.254 0 2.438.511 3.313 1.4a4.157 4.157 0 0 1 1.82-.423c2.171 0 3.992 1.682 4.237 3.914a1 1 0 0 1-.995 1.11"/><path opacity=".2" d="M23 51h48v18H23z"/><path d="M24 68.004h46v-16H24v16zm47 2H23a1 1 0 0 1-1-1v-18a1 1 0 0 1 1-1h48a1 1 0 0 1 1 1v18a1 1 0 0 1-1 1z"/><path d="M47 70.004a1 1 0 0 1-1-1v-18a1 1 0 1 1 2 0v18a1 1 0 0 1-1 1M53 70.004a1 1 0 0 1-1-1v-18a1 1 0 1 1 2 0v18a1 1 0 0 1-1 1M59 70.004a1 1 0 0 1-1-1v-18a1 1 0 1 1 2 0v18a1 1 0 0 1-1 1M65 70.004a1 1 0 0 1-1-1v-18a1 1 0 1 1 2 0v18a1 1 0 0 1-1 1M41 70.004a1 1 0 0 1-1-1v-18a1 1 0 1 1 2 0v18a1 1 0 0 1-1 1M35 70.004a1 1 0 0 1-1-1v-18a1 1 0 1 1 2 0v18a1 1 0 0 1-1 1M29 70.004a1 1 0 0 1-1-1v-18a1 1 0 1 1 2 0v18a1 1 0 0 1-1 1"/><path d="M71 58.004H23a1 1 0 1 1 0-2h48a1 1 0 1 1 0 2M71 64.004H23a1 1 0 1 1 0-2h48a1 1 0 1 1 0 2M75 74.004H19a1 1 0 1 1 0-2h56a1 1 0 1 1 0 2M30 46.004h6v-16h-6v16zm7 2h-8a1 1 0 0 1-1-1v-18a1 1 0 0 1 1-1h8a1 1 0 0 1 1 1v18a1 1 0 0 1-1 1z"/><path d="M20 76.004h54v-28H20v28zm55 2H19a1 1 0 0 1-1-1v-30a1 1 0 0 1 1-1h56a1 1 0 0 1 1 1v30a1 1 0 0 1-1 1zM37 34.004h-8a1 1 0 1 1 0-2h8a1 1 0 1 1 0 2"/><path d="M44 46.004h6v-16h-6v16zm7 2h-8a1 1 0 0 1-1-1v-18a1 1 0 0 1 1-1h8a1 1 0 0 1 1 1v18a1 1 0 0 1-1 1z"/><path d="M51 34.004h-8a1 1 0 1 1 0-2h8a1 1 0 1 1 0 2M58 46.004h6v-16h-6v16zm7 2h-8a1 1 0 0 1-1-1v-18a1 1 0 0 1 1-1h8a1 1 0 0 1 1 1v18a1 1 0 0 1-1 1z"/><path d="M65 34.004h-8a1 1 0 1 1 0-2h8a1 1 0 1 1 0 2M31 26.004a1 1 0 0 1-1-1c0-1.78.814-3.376 2.234-4.376 1.384-.975 3.147-1.289 4.834-.887 1.821-1.855 4.285-2.272 6.43-1.037.48.276.645.887.369 1.365-.276.48-.888.642-1.365.37-1.46-.839-3.117-.428-4.333 1.07a.994.994 0 0 1-1.113.311c-1.244-.443-2.651-.274-3.67.443-.894.63-1.386 1.603-1.386 2.741a1 1 0 0 1-1 1M59 26.004a1 1 0 0 1-1-1c0-1.78.814-3.376 2.234-4.376 1.384-.975 3.148-1.289 4.834-.887 1.821-1.855 4.285-2.272 6.43-1.037.48.276.645.887.369 1.365-.276.48-.888.642-1.365.37-1.46-.839-3.117-.428-4.333 1.07a.994.994 0 0 1-1.113.311c-1.244-.443-2.651-.274-3.67.443-.894.63-1.386 1.603-1.386 2.741a1 1 0 0 1-1 1M45.001 26.004a1 1 0 0 1-.992-1.133c.294-2.188 2.171-3.846 4.382-3.884a4.986 4.986 0 0 1 4.584-2.983c1.666 0 3.216.82 4.148 2.194a1 1 0 1 1-1.654 1.123 3.009 3.009 0 0 0-2.494-1.317 2.988 2.988 0 0 0-2.917 2.276 1.002 1.002 0 0 1-1.145.75 2.588 2.588 0 0 0-.443-.044c-1.248 0-2.315.925-2.479 2.151a1 1 0 0 1-.99.867"/><path opacity=".2" d="M29 33h8v14h-8zM43 33h8v14h-8zM57 33h8v14h-8z"/></g></svg>