<svg xmlns="http://www.w3.org/2000/svg" width="96" height="96" viewBox="0 0 96 96">
    <g fill="#FFF" fill-rule="evenodd">
        <path d="M43.572 69a.986.986 0 0 1-.485-.126c-7.224-4.021-8.83-6.742-10.864-10.186-1.465-2.481-3.126-5.293-7.392-9.429-.513-.498-.824-1.301-.831-2.147-.007-.832.28-1.582.808-2.112 2.015-2.02 5.382-1.955 8.576.167 1.38.917 2.867 2.242 4.156 3.458.05-4.675.506-13.654.98-18.386.243-2.417 2.187-4.239 4.522-4.239a4.536 4.536 0 0 1 4.53 4.531V49a1 1 0 1 1-2 0V30.531A2.535 2.535 0 0 0 43.043 28c-1.325 0-2.39 1.025-2.531 2.438-.564 5.625-1.127 17.881-.94 20.491a1 1 0 0 1-1.69.793l-.452-.436c-1.45-1.398-3.435-3.312-5.152-4.453-1.796-1.192-4.458-2.019-6.052-.421-.145.146-.227.396-.225.684.003.355.133.639.224.727 4.458 4.323 6.267 7.387 7.722 9.849 1.952 3.307 3.363 5.696 10.113 9.454A1 1 0 0 1 43.572 69"/>
        <path d="M54.573 50a1 1 0 0 1-1-1V22.985A2.988 2.988 0 0 0 50.588 20a2.992 2.992 0 0 0-2.985 2.969l-.03 9.034a1 1 0 0 1-1 .997h-.003a1 1 0 0 1-.997-1.003l.03-9.036A4.998 4.998 0 0 1 50.588 18a4.99 4.99 0 0 1 4.985 4.985V49a1 1 0 0 1-1 1"/>
        <path d="M60.573 78h-13c-4.411 0-8-3.589-8-8v-3.7a1 1 0 1 1 2 0V70c0 3.309 2.69 6 6 6h13c3.309 0 6-2.691 6-6 0-.181.049-.358.142-.514.029-.048 2.858-4.832 2.858-9.486 0-8.879-.293-14.145-1.208-21.67C68.2 36.979 67.148 36 65.863 36a2.49 2.49 0 0 0-1.793.755 2.485 2.485 0 0 0-.712 1.81l.122 5.154a1 1 0 1 1-2 .047l-.121-5.154a4.466 4.466 0 0 1 1.28-3.254A4.47 4.47 0 0 1 65.863 34c2.312 0 4.199 1.72 4.487 4.088.926 7.617 1.223 12.941 1.223 21.912 0 4.646-2.391 9.187-3.005 10.276C68.423 74.56 64.892 78 60.573 78M38.573 55a1 1 0 0 1-1-1v-3a1 1 0 1 1 2 0v3a1 1 0 0 1-1 1"/>
        <path d="M64.956 70h-.583a1 1 0 1 1 0-2h.583c2.003 0 3.295-1.201 3.95-3.673a1 1 0 1 1 1.934.512C69.957 68.167 67.868 70 64.956 70M62.792 53a1 1 0 0 1-1-.962l-.885-23.485A2.645 2.645 0 0 0 58.256 26c-1.493 0-2.683 1.189-2.683 2.652V32a1 1 0 1 1-2 0v-3.348A4.657 4.657 0 0 1 58.225 24c2.544 0 4.586 1.967 4.68 4.477l.887 23.485a.999.999 0 0 1-1 1.038"/>
        <path d="M26.763 45.088l-1.366.996v1.71l1.217 2.517 3.342 3.21 4.816 7.843 5.055 4.58 1.04.716-.171 4.404 1.346 3.255 2.884 1.974 3.147.717h6.48l5.867-.106 3.579-.85 2.818-2.628 1.3-4.749 2.346-5.861.022-16.415-1.39-10.096-2.582-1.187-4.214.695-.355-8.79-2.367-1.776-4.556.369-.603-4.646-2.951-1.629-2.194-.084-2.041 1.955-.766 7.295-2.297-1.28-3.165.565-1.578 2.672-.565 19.406-2.859-1.192-4.189-3.32-2.774-.692z" opacity=".2"/>
    </g>
</svg>
