<svg width="96" height="96" viewBox="0 0 96 96" xmlns="http://www.w3.org/2000/svg" xmlns:xlink="http://www.w3.org/1999/xlink"><title>0C05C9B0-F85A-4A8D-87A0-41868F73B26C</title><defs><path id="a" d="M0 60h52V0H0z"/></defs><g fill="none" fill-rule="evenodd"><g transform="translate(22 18)"><path d="M10 36a1.001 1.001 0 0 0 0 2h32a1.001 1.001 0 0 0 0-2H10zm32 4H10c-1.654 0-3-1.346-3-3s1.346-3 3-3h32c1.654 0 3 1.346 3 3s-1.346 3-3 3zM47 26v2h2.001L49 26h-2zm2 4h-2c-1.103 0-2-.897-2-2v-3a1 1 0 0 1 1-1h4a1 1 0 0 1 1 1v3c0 1.103-.897 2-2 2z" fill="#FFF"/><mask id="b" fill="#fff"><use xlink:href="#a"/></mask><path d="M25 52h2v-2h-2v2zm3 2h-4a1 1 0 0 1-1-1v-3c0-1.103.897-2 2-2h2c1.103 0 2 .897 2 2v3a1 1 0 0 1-1 1zM24 36a1 1 0 0 1-1-1v-4a1 1 0 1 1 2 0v4a1 1 0 0 1-1 1M28 36a1 1 0 0 1-1-1v-4a1 1 0 1 1 2 0v4a1 1 0 0 1-1 1" fill="#FFF" mask="url(#b)"/><path d="M39.716 32H12.284a2.999 2.999 0 0 1-2.973-3.396l3.235-24.265A5.014 5.014 0 0 1 17.502 0h16.996a5.014 5.014 0 0 1 4.956 4.339l3.235 24.265A2.999 2.999 0 0 1 39.716 32zM17.502 2a3.01 3.01 0 0 0-2.974 2.603l-3.235 24.265c-.039.29.046.57.238.79a.988.988 0 0 0 .753.342h27.432a.988.988 0 0 0 .753-.342c.192-.22.277-.5.238-.79L37.472 4.604A3.01 3.01 0 0 0 34.498 2H17.502zM26 50a1 1 0 0 1-1-1V39a1 1 0 1 1 2 0v10a1 1 0 0 1-1 1M46 38h-2a1 1 0 1 1 0-2h2c.552 0 1-.449 1-1v-6a1 1 0 1 1 2 0v6c0 1.654-1.346 3-3 3M3 28h2v-2H3v2zm2 2H3c-1.103 0-2-.897-2-2v-3a1 1 0 0 1 1-1h4a1 1 0 0 1 1 1v3c0 1.103-.897 2-2 2z" fill="#FFF" mask="url(#b)"/><path d="M8 38H6c-1.654 0-3-1.346-3-3v-6a1 1 0 1 1 2 0v6c0 .551.448 1 1 1h2a1 1 0 1 1 0 2M30 44h-4a1 1 0 1 1 0-2h4a1 1 0 1 1 0 2M51 26h-6a1 1 0 1 1 0-2h6a1 1 0 1 1 0 2M7 26H1a1 1 0 1 1 0-2h6a1 1 0 1 1 0 2" fill="#FFF" mask="url(#b)"/><path d="M30 45a1 1 0 0 1-1-1v-1a1 1 0 1 1 2 0v1a1 1 0 0 1-1 1M26 57a1 1 0 0 1-1-1v-3a1 1 0 1 1 2 0v3a1 1 0 0 1-1 1" fill="#FFF" mask="url(#b)"/><path d="M39 57a1 1 0 0 1-1-1v-1c0-.551-.448-1-1-1H15c-.552 0-1 .449-1 1v1a1 1 0 1 1-2 0v-1c0-1.654 1.346-3 3-3h22c1.654 0 3 1.346 3 3v1a1 1 0 0 1-1 1" fill="#FFF" mask="url(#b)"/><path d="M13 57.998V58v-.002zM13 60c-1.103 0-2-.898-2-2 0-1.103.897-2 2-2s2 .897 2 2c0 1.102-.897 2-2 2zM39 57.998V58v-.002zM39 60c-1.103 0-2-.898-2-2 0-1.103.897-2 2-2s2 .897 2 2c0 1.102-.897 2-2 2zM26 57.998V58v-.002zM26 60c-1.103 0-2-.898-2-2 0-1.103.897-2 2-2s2 .897 2 2c0 1.102-.897 2-2 2z" fill="#FFF" mask="url(#b)"/></g><path d="M39.502 20a3.01 3.01 0 0 0-2.974 2.603l-3.235 24.265c-.039.29.046.57.238.79a.988.988 0 0 0 .753.342h27.432a.988.988 0 0 0 .753-.342c.192-.22.277-.5.238-.79l-3.235-24.264A3.01 3.01 0 0 0 56.498 20H39.502z" fill="#FFF" opacity=".2"/></g></svg>