<svg width="96" height="96" viewBox="0 0 96 96" xmlns="http://www.w3.org/2000/svg"><title>47B1DE10-E43D-4A78-8615-97513814917B</title><g fill="#FFF" fill-rule="evenodd"><path d="M61.172 48.654a.997.997 0 0 1-.707-.293l-2.827-2.826a.999.999 0 1 1 1.414-1.414l2.827 2.826a.999.999 0 0 1-.707 1.707M64 45.826a.997.997 0 0 1-.707-.293l-2.827-2.826a.999.999 0 1 1 1.414-1.414l2.827 2.826A.999.999 0 0 1 64 45.826M58.343 51.483a.997.997 0 0 1-.707-.293l-2.826-2.827a.999.999 0 1 1 1.414-1.414l2.826 2.827a.999.999 0 0 1-.707 1.707M61.613 32.11a.999.999 0 0 1-.707-1.707l7.776-7.777a.999.999 0 1 1 1.414 1.414l-7.776 7.777a.997.997 0 0 1-.707.293M65.856 36.352a.999.999 0 0 1-.707-1.707l7.777-7.777a.999.999 0 1 1 1.414 1.415l-7.777 7.776a.997.997 0 0 1-.707.294"/><path d="M76.897 31.837a.997.997 0 0 1-.708-.293L65.35 20.707a1 1 0 0 1 1.413-1.414L77.603 30.13a.999.999 0 0 1-.706 1.707M19 78.953a.999.999 0 0 1-.707-1.707l12.201-12.2a.999.999 0 1 1 1.414 1.413L19.707 78.66a.997.997 0 0 1-.707.293M30.5 57.565a.997.997 0 0 1-.707-.293L28.321 55.8a3.972 3.972 0 0 1-1.172-2.829c0-1.068.416-2.072 1.172-2.828l24.044-24.039a4.005 4.005 0 0 1 5.656 0l1.47 1.47a.999.999 0 1 1-1.414 1.414l-1.47-1.47a2.001 2.001 0 0 0-2.828 0l-24.044 24.04c-.78.78-.78 2.048 0 2.828l1.472 1.472a.999.999 0 0 1-.707 1.707m13.436 12.19a3.99 3.99 0 0 1-2.83-1.169l-7.777-7.778a.999.999 0 1 1 1.414-1.414l7.778 7.777c.779.78 2.049.781 2.829.001l24.043-24.04c.78-.78.78-2.048.001-2.829l-8.489-8.487a1 1 0 0 1 1.414-1.414l8.489 8.487a4.007 4.007 0 0 1-.001 5.657l-24.043 24.04a3.988 3.988 0 0 1-2.828 1.17"/><path d="M46.764 68.172a.997.997 0 0 1-.707-.293l-9.9-9.9a.999.999 0 1 1 1.415-1.413l9.899 9.899a.999.999 0 0 1-.707 1.707M33.328 54.737a.997.997 0 0 1-.707-.293l-3.535-3.535a.999.999 0 1 1 1.414-1.414l3.535 3.535a.999.999 0 0 1-.707 1.707M69.39 45.545a.997.997 0 0 1-.706-.293l-9.9-9.9A.999.999 0 1 1 60.2 33.94l9.899 9.899a.999.999 0 0 1-.707 1.707M55.956 32.11a.997.997 0 0 1-.707-.293l-3.536-3.536a.999.999 0 1 1 1.414-1.414l3.536 3.536a.999.999 0 0 1-.707 1.707M28.662 64.213a.997.997 0 0 1-.707-.293l-.283-.283a3.973 3.973 0 0 1-1.172-2.828c0-1.07.416-2.074 1.172-2.828l2.121-2.122a.999.999 0 1 1 1.414 1.414l-2.12 2.122c-.379.378-.587.88-.587 1.414 0 .534.208 1.036.586 1.414l.283.283a.999.999 0 0 1-.707 1.707M36.156 70.463a3.988 3.988 0 0 1-2.827-1.17l-3.253-3.252a.999.999 0 1 1 1.414-1.414l3.253 3.253a2.004 2.004 0 0 0 2.828 0l2.121-2.122a.999.999 0 1 1 1.414 1.414l-2.12 2.122a3.992 3.992 0 0 1-2.83 1.169M42.524 46.959a.99.99 0 0 1-.93-.62c-.049-.12-.08-.25-.08-.38 0-.26.111-.52.3-.71.231-.23.58-.34.9-.269.06.009.13.029.191.059a.58.58 0 0 1 .17.09c.05.03.11.08.15.12.09.1.17.2.22.33.05.12.08.25.08.38s-.03.26-.08.38-.12.23-.22.33c-.09.09-.2.16-.32.21-.12.05-.25.08-.38.08M46.765 51.2a.994.994 0 0 1-1-1 .97.97 0 0 1 .29-.7c.37-.38 1.04-.38 1.41 0 .19.178.3.44.3.7 0 .27-.11.52-.3.71-.09.09-.2.17-.32.22-.12.048-.25.07-.38.07M51.005 55.45a.996.996 0 0 1-.92-.62c-.05-.12-.08-.25-.08-.39 0-.262.11-.52.29-.7.38-.38 1.05-.38 1.42 0 .18.18.29.438.29.7 0 .27-.1.52-.29.71a1 1 0 0 1-.71.3M36.865 52.62a.996.996 0 0 1-.71-.3.984.984 0 0 1-.29-.7c0-.272.11-.53.29-.71.37-.37 1.05-.37 1.41 0a.993.993 0 0 1 .3.71c0 .26-.1.51-.3.7a.995.995 0 0 1-.699.3M41.105 56.86a.96.96 0 0 1-.71-.302.984.984 0 0 1-.21-.319.995.995 0 0 1-.08-.38c0-.13.03-.26.08-.38.05-.13.12-.23.21-.33.38-.38 1.05-.37 1.42 0 .09.09.16.2.21.33a.973.973 0 0 1-.21 1.08.958.958 0 0 1-.71.3M45.355 61.099a.99.99 0 0 1-1-1c0-.26.1-.52.29-.7a.969.969 0 0 1 .9-.28c.06.01.13.03.19.06.06.02.12.05.17.09.05.04.11.08.15.13a.96.96 0 0 1 .29.7.982.982 0 0 1-.29.71.98.98 0 0 1-.7.29M46.055 56.15c-.13 0-.26-.022-.38-.07-.12-.05-.23-.13-.32-.22a1 1 0 0 1-.3-.71c0-.262.11-.522.3-.71.36-.37 1.04-.37 1.41 0 .18.188.29.448.29.71a.99.99 0 0 1-1 1M37.575 47.669c-.14 0-.27-.03-.39-.08a.871.871 0 0 1-.32-.22.984.984 0 0 1-.29-.7c0-.13.02-.26.07-.39.05-.12.13-.23.22-.32.37-.37 1.04-.37 1.41 0 .1.09.17.2.22.32.05.13.08.26.08.39 0 .26-.11.51-.3.7a.99.99 0 0 1-.7.3M41.814 51.91a.824.824 0 0 1-.38-.08.841.841 0 0 1-.33-.22c-.09-.092-.17-.2-.22-.32-.048-.12-.07-.25-.07-.38s.022-.26.07-.38c.062-.12.13-.23.22-.33.37-.37 1.04-.37 1.41 0 .101.1.17.21.22.33.051.12.08.25.08.38s-.029.26-.08.38a.87.87 0 0 1-.22.32.956.956 0 0 1-.7.3M50.295 60.4a.99.99 0 0 1-.7-.302.996.996 0 0 1-.3-.71c0-.059.01-.13.02-.189.02-.06.04-.13.06-.19.03-.06.06-.12.09-.17a.654.654 0 0 1 .13-.15.62.62 0 0 1 .15-.13c.05-.03.11-.06.17-.09.06-.02.12-.04.19-.06.129-.02.26-.02.39 0 .06.02.13.04.19.06.06.03.11.06.17.09.05.04.1.08.15.13.05.04.09.09.13.15.03.05.06.11.09.17.02.06.04.13.049.19.02.06.03.13.03.19 0 .27-.11.52-.3.71a.996.996 0 0 1-.71.3M58 56.968a.998.998 0 0 1-.706-.292l-11-10.968a.999.999 0 1 1 1.412-1.416l11 10.968A.999.999 0 0 1 58 56.968M44.565 43.532a.997.997 0 0 1-.707-.293l-3.536-3.535a.999.999 0 1 1 1.414-1.414l3.536 3.535a.999.999 0 0 1-.707 1.707"/><path d="M55.287 25.886L52.382 27.1 41.265 38.755 29.713 49.68l-1.648 2.319.798 3.1 1.238 1.127-1.208 2.321-.76 1.995.065 1.597.651 1.08 3.098 3.698 2.731 2.27 2.84.152 2.67-2.69 2.608 2.017h1.82l2.94-1.71L60.06 53.991l10.837-10.643-.13-3.157-7.775-8.004-5.786-5.511-1.92-.79z" opacity=".2"/></g></svg>