<svg width="96" height="96" viewBox="0 0 96 96" xmlns="http://www.w3.org/2000/svg" xmlns:xlink="http://www.w3.org/1999/xlink"><title>80C7765E-664F-40A0-BF89-BD6B75CE92F3</title><defs><path id="a" d="M0 60h52V0H0z"/></defs><g fill="none" fill-rule="evenodd"><g transform="translate(22 18)"><path d="M26 10c-4.411 0-8 3.589-8 8s3.589 8 8 8 8-3.589 8-8-3.589-8-8-8zm0 18c-5.514 0-10-4.486-10-10S20.486 8 26 8s10 4.486 10 10-4.486 10-10 10z" fill="#FFF"/><path d="M21 19a1 1 0 0 1-1-1c0-3.309 2.691-6 6-6a1 1 0 1 1 0 2c-2.206 0-4 1.794-4 4a1 1 0 0 1-1 1" fill="#FFF"/><path d="M6 34h40V5c0-1.654-1.346-3-3-3H9C7.346 2 6 3.346 6 5v29zm41 2H5a1 1 0 0 1-1-1V5c0-2.757 2.243-5 5-5h34c2.757 0 5 2.243 5 5v30a1 1 0 0 1-1 1z" fill="#FFF"/><mask id="b" fill="#fff"><use xlink:href="#a"/></mask><path d="M12 58h28V44H12v14zm29 2H11a1 1 0 0 1-1-1V43a1 1 0 0 1 1-1h30a1 1 0 0 1 1 1v16a1 1 0 0 1-1 1z" fill="#FFF" mask="url(#b)"/><path d="M42 48h5c1.654 0 3-1.346 3-3v-5H2v5c0 1.654 1.346 3 3 3h5v-5a1 1 0 0 1 1-1h30a1 1 0 0 1 1 1v5zm5 2h-6a1 1 0 0 1-1-1v-5H12v5a1 1 0 0 1-1 1H5c-2.757 0-5-2.243-5-5v-6a1 1 0 0 1 1-1h50a1 1 0 0 1 1 1v6c0 2.757-2.243 5-5 5zM38 8h4V6h-4v2zm5 2h-6a1 1 0 0 1-1-1V5a1 1 0 0 1 1-1h6a1 1 0 0 1 1 1v4a1 1 0 0 1-1 1zM11 8c-.13 0-.26-.03-.38-.08s-.23-.12-.33-.21A.99.99 0 0 1 10 7c0-.26.11-.521.29-.71l.15-.12c.06-.04.12-.07.18-.09a.949.949 0 0 1 .76 0c.13.05.23.12.33.21.18.189.29.45.29.71a.99.99 0 0 1-1 1" fill="#FFF" mask="url(#b)"/><path d="M3.414 38h45.172l-2-2H5.414l-2 2zM51 40H1a1 1 0 0 1-.707-1.707l4-4A.997.997 0 0 1 5 34h42a1 1 0 0 1 .707.293l4 4A1 1 0 0 1 51 40zM6 22h10.833A9.972 9.972 0 0 1 16 18c0-1.389.285-2.746.833-4H6v8zm12.518 2H5a1 1 0 0 1-1-1V13a1 1 0 0 1 1-1h13.518a1 1 0 0 1 .831 1.557A7.952 7.952 0 0 0 18 18c0 1.589.466 3.126 1.349 4.443A1.002 1.002 0 0 1 18.518 24zM35.166 22H46v-8H35.165A9.972 9.972 0 0 1 36 18a9.972 9.972 0 0 1-.834 4M47 24H33.483a1 1 0 0 1-.831-1.557A7.958 7.958 0 0 0 33.998 18a7.958 7.958 0 0 0-1.348-4.443A1.002 1.002 0 0 1 33.483 12H47a1 1 0 0 1 1 1v10a1 1 0 0 1-1 1M45 44H7a1 1 0 1 1 0-2h38a1 1 0 1 1 0 2M41 54H11a1 1 0 1 1 0-2h30a1 1 0 1 1 0 2" fill="#FFF" mask="url(#b)"/></g><path d="M30.622 19l-2.58 1.387L27 26.553l.285 3.947 12.364.394 3.711-2.541 4.836-1.607 4.018.89 3.078 2.821 4.8.63 8.96-.258.043-9.244L66.231 19h-35.61zM30.622 53.087l-3.337-.574-.285-6.98.285-3.947 12.364-.393 3.711 2.54 4.836 1.608 4.018-.89 3.078-2.821 4.8-.63 8.96.258v11.255l-2.821.574h-35.61z" fill="#FFF" opacity=".2"/></g></svg>