<svg width="96" height="96" viewBox="0 0 96 96" xmlns="http://www.w3.org/2000/svg" xmlns:xlink="http://www.w3.org/1999/xlink"><title>AC8C1654-A924-4E3A-8A41-89547DC32CDE</title><defs><path id="a" d="M0 48h60V0H0z"/></defs><g fill="none" fill-rule="evenodd"><g transform="translate(18 24)"><path d="M53 43.54a1 1 0 0 1-1-1V19a1 1 0 0 1 1-1h3v-2.351L30 4.095 4 15.649V18h3a1 1 0 0 1 1 1v21.001a1 1 0 1 1-2 0V20H3a1 1 0 0 1-1-1v-4c0-.396.232-.753.594-.914l27-12a.999.999 0 0 1 .812 0l27 12A.999.999 0 0 1 58 15v4a1 1 0 0 1-1 1h-3v22.54a1 1 0 0 1-1 1z" fill="#FFF"/><path d="M53 20a1 1 0 0 1-1-1v-1.345L30 8.091 8 17.655V19a1 1 0 1 1-2 0v-2c0-.398.236-.759.602-.917l23-10a.993.993 0 0 1 .796 0l23 10A.998.998 0 0 1 54 17v2a1 1 0 0 1-1 1M46 11.111a1 1 0 0 1-1-1v-5.11a1 1 0 1 1 2 0v5.11a1 1 0 0 1-1 1M52 13.777a1 1 0 0 1-1-1V5a1 1 0 1 1 2 0v7.777a1 1 0 0 1-1 1" fill="#FFF"/><mask id="b" fill="#fff"><use xlink:href="#a"/></mask><path d="M46 4h6V2h-6v2zm7 2h-8a1 1 0 0 1-1-1V1a1 1 0 0 1 1-1h8a1 1 0 0 1 1 1v4a1 1 0 0 1-1 1zM42 32h6v-8h-6v8zm7 2h-8a1 1 0 0 1-1-1V23a1 1 0 0 1 1-1h8a1 1 0 0 1 1 1v10a1 1 0 0 1-1 1z" fill="#FFF" mask="url(#b)"/><path d="M50 34H40a1 1 0 1 1 0-2h10a1 1 0 1 1 0 2M12 32h6v-8h-6v8zm7 2h-8a1 1 0 0 1-1-1V23a1 1 0 0 1 1-1h8a1 1 0 0 1 1 1v10a1 1 0 0 1-1 1zM24 46h12V24H24v22zm13 2H23a1 1 0 0 1-1-1V23a1 1 0 0 1 1-1h14a1 1 0 0 1 1 1v24a1 1 0 0 1-1 1z" fill="#FFF" mask="url(#b)"/><path d="M20 34H10a1 1 0 1 1 0-2h10a1 1 0 1 1 0 2M19 28h-8a1 1 0 1 1 0-2h8a1 1 0 1 1 0 2M49 28h-8a1 1 0 1 1 0-2h8a1 1 0 1 1 0 2M27 36.05c-.553 0-1.05-.497-1.05-1.05s.497-1.05 1.05-1.05 1.05.497 1.05 1.05-.497 1.05-1.05 1.05M11.114 44.085a.996.996 0 0 1-.595-.196c-.496-.368-.78-.32-1.11-.114a1 1 0 0 1-1.065-1.693c.764-.479 1.967-.836 3.367.199.443.329.536.955.208 1.4a1.002 1.002 0 0 1-.805.404M49.118 44.025a1 1 0 0 1-.55-.166c-.516-.34-.8-.275-1.119-.054a.998.998 0 1 1-1.15-1.634c1.057-.746 2.224-.739 3.372.02a1 1 0 0 1-.553 1.834" fill="#FFF" mask="url(#b)"/><path d="M39.14 43.14h.01-.01zM38 46h20c0-1.654-1.345-3-3-3-.588 0-1.158.173-1.65.498a.988.988 0 0 1-.902.104.996.996 0 0 1-.614-.668C51.353 41.206 49.777 40 48 40c-1.431 0-2.721.754-3.45 2.018a1 1 0 0 1-1.43.327 1.98 1.98 0 0 0-3.022 1.084 1.004 1.004 0 0 1-.67.67 1.98 1.98 0 0 0-1.428 1.9zm21 2H37a1 1 0 0 1-1-1v-1c0-1.595.93-3 2.365-3.635A3.958 3.958 0 0 1 42 40c.467 0 .924.08 1.355.236A5.997 5.997 0 0 1 48 38c2.27 0 4.323 1.307 5.329 3.288a4.976 4.976 0 0 1 1.67-.288c2.758 0 5 2.244 5 5v1a1 1 0 0 1-1 1zM2 46h20c0-1.103-.897-2-2-2-.249 0-.499.05-.742.147a1 1 0 0 1-1.338-.666A1.999 1.999 0 0 0 16 42c-.402 0-.79.119-1.121.345a1.005 1.005 0 0 1-1.429-.327C12.722 40.754 11.432 40 10 40a3.998 3.998 0 0 0-3.68 2.433.998.998 0 0 1-1.021.602l-.162-.02C5.092 43.009 5.047 43 5 43c-1.654 0-3 1.346-3 3m21 2H1a1 1 0 0 1-1-1v-1a5.007 5.007 0 0 1 4.802-4.996A5.99 5.99 0 0 1 10 38a6 6 0 0 1 4.646 2.235 3.988 3.988 0 0 1 4.826 1.801A4.004 4.004 0 0 1 24 46v1a1 1 0 0 1-1 1" fill="#FFF" mask="url(#b)"/></g><path fill="#FFF" opacity=".2" d="M25.237 41.436l-.128 22.213 3.187-.367 2.946.934.994 1.146 2.19-.26 2.102 1.365 1.062.711 1.76.283 1.533.304.372-20.812 14.052.236.225 21.152 2.083-1.605 1.843-1.517 2.194-.044 3.141-1.71 2.408-.386 3.123 1.564.904-3.717-.217-20.066-22.938-9.793z"/></g></svg>