<svg width="96" height="96" viewBox="0 0 96 96" xmlns="http://www.w3.org/2000/svg" xmlns:xlink="http://www.w3.org/1999/xlink"><title>A447A596-DB55-4D31-8986-92C194880D03</title><defs><path id="a" d="M38.786 0v2h-38V0h38z"/><path id="c" d="M8.786 7h-8V.829h8V7z"/><path id="e" d="M0 8.002V.024h7.395v7.977H0z"/></defs><g transform="translate(21 20)" fill="none" fill-rule="evenodd"><circle stroke="#979797" fill="#FFF" opacity=".2" cx="25" cy="28" r="23"/><g transform="translate(16 32)"><mask id="b" fill="#fff"><use xlink:href="#a"/></mask><path d="M37.786 2h-36a1 1 0 1 1 0-2h36a1 1 0 1 1 0 2" fill="#FFF" mask="url(#b)"/></g><path d="M14.786 34a.994.994 0 0 1-.71-.29c-.09-.101-.16-.21-.21-.33a.995.995 0 0 1-.08-.38c0-.13.03-.26.08-.38.05-.13.12-.23.21-.33.37-.37 1.05-.37 1.42 0 .09.1.16.2.21.33.05.12.08.25.08.38s-.03.26-.08.38-.12.229-.21.33a.994.994 0 0 1-.71.29M47.786 52a.997.997 0 0 1-.707-.293L21.233 25.86a.999.999 0 1 1 1.414-1.414l25.846 25.847A.999.999 0 0 1 47.786 52M19.786 24a.994.994 0 0 1-1-1c0-.13.03-.26.08-.38.05-.13.12-.23.21-.33.28-.28.72-.36 1.09-.21.13.05.23.12.33.21.09.1.16.2.21.33a.995.995 0 0 1-.21 1.09.994.994 0 0 1-.71.29M24.786 4c.657 0 1.317.028 1.998.087.002-.028.002-.058.002-.087 0-1.103-.897-2-2-2s-2 .897-2 2c0 .029 0 .059.002.087A23.034 23.034 0 0 1 24.786 4m2.763 2.171a.961.961 0 0 1-.119-.007 21.171 21.171 0 0 0-5.288 0 1 1 0 0 1-1.04-.602A4.004 4.004 0 0 1 24.786 0a4.004 4.004 0 0 1 3.684 5.562 1.002 1.002 0 0 1-.92.609" fill="#FFF"/><g transform="translate(20 49)"><mask id="d" fill="#fff"><use xlink:href="#c"/></mask><path d="M2.788 2.913A2.003 2.003 0 0 0 4.786 5c1.103 0 2-.898 2-2 0-.029 0-.059-.002-.087a22.79 22.79 0 0 1-3.996 0M4.786 7a4.004 4.004 0 0 1-3.684-5.562.998.998 0 0 1 1.04-.602c1.845.221 3.443.221 5.288 0a1 1 0 0 1 1.04.602A4.004 4.004 0 0 1 4.786 7" fill="#FFF" mask="url(#d)"/></g><path d="M44.5 14.312a24.057 24.057 0 0 1 2.001 3.458l.07-.037c.462-.268.793-.7.931-1.216A1.984 1.984 0 0 0 47.303 15a1.988 1.988 0 0 0-1.215-.93 1.983 1.983 0 0 0-1.588.242m1.446 5.666a1 1 0 0 1-.919-.608 22.032 22.032 0 0 0-2.649-4.579 1.002 1.002 0 0 1 .002-1.204 3.996 3.996 0 0 1 1.191-1.05 3.966 3.966 0 0 1 3.035-.4A3.978 3.978 0 0 1 49.036 14c.533.925.675 2.003.398 3.035a3.97 3.97 0 0 1-1.863 2.428 3.971 3.971 0 0 1-1.498.505 1.096 1.096 0 0 1-.127.009" fill="#FFF"/><g transform="translate(0 36)"><mask id="f" fill="#fff"><use xlink:href="#e"/></mask><path d="M3.071 2.23c-.022.013-.045.023-.068.038a1.983 1.983 0 0 0-.933 1.215A1.985 1.985 0 0 0 2.27 5c.267.463.697.793 1.215.931a1.987 1.987 0 0 0 1.587-.242 24.057 24.057 0 0 1-2-3.46m.936 5.772a3.99 3.99 0 0 1-1.042-.137A3.975 3.975 0 0 1 .538 6a3.978 3.978 0 0 1-.4-3.035A3.975 3.975 0 0 1 2.002.537 3.96 3.96 0 0 1 3.5.03c.445-.05.87.188 1.045.6a21.955 21.955 0 0 0 2.65 4.578c.268.357.266.849-.003 1.206a3.996 3.996 0 0 1-1.19 1.048c-.616.356-1.3.538-1.994.538" fill="#FFF" mask="url(#f)"/></g><path d="M4.005 13.999c-.174 0-.348.023-.521.069A1.984 1.984 0 0 0 2.27 15a1.99 1.99 0 0 0-.2 1.518c.139.515.469.947.932 1.213l.002.001a.652.652 0 0 0 .068.038 23.95 23.95 0 0 1 2-3.459c-.023-.014-.046-.029-.07-.042a1.98 1.98 0 0 0-.997-.27m-.378 5.978c-.042 0-.084-.003-.127-.008a3.99 3.99 0 0 1-1.5-.506 3.976 3.976 0 0 1-1.862-2.428A3.976 3.976 0 0 1 .538 14a3.968 3.968 0 0 1 2.429-1.863 3.975 3.975 0 0 1 3.036.399c.465.27.866.622 1.189 1.05.27.355.27.848.002 1.205a21.988 21.988 0 0 0-2.648 4.578 1 1 0 0 1-.92.608" fill="#FFF"/><path d="M24.786 6c-12.13 0-22 9.869-22 22s9.87 22 22 22c12.131 0 22-9.869 22-22s-9.869-22-22-22m0 46c-13.233 0-24-10.767-24-24s10.767-24 24-24 24 10.767 24 24-10.767 24-24 24" fill="#FFF"/><path d="M44.5 41.688a1.979 1.979 0 0 0 1.588.243 1.988 1.988 0 0 0 1.215-.93 1.984 1.984 0 0 0 .2-1.518 1.986 1.986 0 0 0-.932-1.214v-.002l-.07-.038a24.057 24.057 0 0 1-2 3.46m1.063 2.313a3.98 3.98 0 0 1-1.994-.538 4.004 4.004 0 0 1-1.19-1.05 1.002 1.002 0 0 1-.002-1.205 22.032 22.032 0 0 0 2.65-4.579c.175-.412.6-.65 1.045-.599a3.966 3.966 0 0 1 1.5.507 3.969 3.969 0 0 1 1.861 2.427A3.974 3.974 0 0 1 49.035 42a3.978 3.978 0 0 1-2.429 1.864 3.995 3.995 0 0 1-1.042.138" fill="#FFF"/></g></svg>