<svg width="96" height="96" viewBox="0 0 96 96" xmlns="http://www.w3.org/2000/svg"><title>618B7675-EDCB-4C3F-B9AA-52288235AFEF</title><g fill="#FFF" fill-rule="evenodd"><path d="M45.009 76.229h-.007a.999.999 0 0 1-.831-.454c-1.066-1.637-3.845-3.837-7.062-6.384-7.702-6.097-18.25-14.447-19.064-25.407-.608-8.186 5.137-14.016 11.126-15.544 5.09-1.298 11.753.057 15.885 7.413 4.41-7.144 10.897-8.598 15.72-7.474a1 1 0 0 1-.455 1.948C54.57 28.983 49.178 32.012 45.9 38.43c-.175.342-.537.53-.914.545a1.001 1.001 0 0 1-.888-.587c-3.503-7.727-9.75-9.207-14.433-8.011-5.182 1.323-10.153 6.37-9.626 13.457.75 10.085 10.9 18.12 18.312 23.988 2.854 2.26 5.218 4.132 6.666 5.783 1.456-1.636 3.809-3.502 6.65-5.754 7.489-5.94 17.746-14.072 18.309-24 .13-2.29-.258-4.456-1.153-6.437l-.194-.385a1 1 0 1 1 1.786-.9l.212.423c1.048 2.317 1.495 4.798 1.346 7.413-.614 10.824-11.277 19.279-19.064 25.452-3.208 2.545-5.98 4.743-7.07 6.368a1.001 1.001 0 0 1-.83.443"/><path d="M46 53.001a.999.999 0 0 1-.707-1.707l20-20a.999.999 0 1 1 1.414 1.414l-20 20a.997.997 0 0 1-.707.293M23 76.001a.999.999 0 0 1-.707-1.707l10-10a1 1 0 1 1 1.414 1.414l-10 10a.997.997 0 0 1-.707.293"/><path d="M60 38.001h6.586l8-8H69a1 1 0 0 1-1-1v-5.586l-8 8v6.586zm7 2h-8a1 1 0 0 1-1-1v-8c0-.266.105-.52.293-.707l10-10a1 1 0 0 1 1.707.707v7h7a1 1 0 0 1 .707 1.707l-10 10a.997.997 0 0 1-.707.293zM23 76.001a1 1 0 0 1-.949-1.316l2-6a.998.998 0 0 1 1.265-.632c.524.174.808.74.633 1.264l-2 6c-.14.42-.53.684-.949.684"/><path d="M23 76.001a.999.999 0 0 1-.316-1.948l6-2a.999.999 0 1 1 .632 1.896l-6 2a1 1 0 0 1-.316.052"/><path opacity=".2" d="M25.918 30.81l-4.816 4.366-2.194 6.426 1.146 7.536 3.776 6.842 7.035 7.536 8.443 6.123 5.642 5.185 7.968-6.315 9.687-8.11 5.93-7.36 2.033-5.394.453-7.77-.955-3.19-2.539 2.098-8.115-.084-.369-8.218.885-.931-2.793-.451-5.376 1.148-4.206 3.535-2.647 3.711-2.563-4.276-5.023-3.448-5.058-.757-4.56.871z"/></g></svg>