<svg width="96" height="96" viewBox="0 0 96 96" xmlns="http://www.w3.org/2000/svg"><title>E3B5FF80-093B-4261-8524-F7E4604CACB1</title><g fill="#FFF" fill-rule="evenodd"><path d="M48.684 44c-2.206 0-4 1.794-4 4s1.794 4 4 4 4-1.794 4-4-1.794-4-4-4m0 10c-3.309 0-6-2.691-6-6s2.691-6 6-6 6 2.691 6 6-2.691 6-6 6"/><path d="M48.684 78c-6.729 0-12-13.178-12-30s5.271-30 12-30 12 13.178 12 30c0 8.212-1.323 16.131-3.629 21.726a1.001 1.001 0 0 1-1.849-.762c2.21-5.363 3.478-13.004 3.478-20.964 0-16.749-5.171-28-10-28s-10 11.251-10 28c0 16.749 5.171 28 10 28 .932 0 1.873-.407 2.796-1.211a1 1 0 1 1 1.313 1.508C51.495 77.427 50.113 78 48.684 78"/><path d="M54.327 69.857a2.646 2.646 0 0 0-2.643 2.643 2.646 2.646 0 0 0 2.643 2.642A2.645 2.645 0 0 0 56.97 72.5a2.646 2.646 0 0 0-2.643-2.643m0 7.285a4.648 4.648 0 0 1-4.643-4.642 4.648 4.648 0 0 1 4.643-4.643A4.648 4.648 0 0 1 58.97 72.5a4.648 4.648 0 0 1-4.643 4.642M30.757 66.322c-3.88.001-6.759-1.079-8.054-3.322-1.692-2.93-.428-7.233 3.558-12.116 3.78-4.629 9.612-9.345 16.423-13.277 7.112-4.105 14.632-6.92 20.63-7.72a1 1 0 1 1 .264 1.983c-5.749.766-13 3.49-19.894 7.47-6.606 3.813-12.243 8.363-15.874 12.81-3.373 4.132-4.603 7.722-3.375 9.85 2.414 4.182 14.744 3.033 29.25-5.34 6.605-3.814 12.242-8.363 15.872-12.81 3.374-4.132 4.604-7.722 3.375-9.85-.466-.808-1.289-1.418-2.447-1.817a1 1 0 1 1 .65-1.89c1.628.558 2.815 1.47 3.53 2.707 1.691 2.93.427 7.232-3.559 12.115-3.78 4.63-9.612 9.345-16.422 13.277-8.96 5.173-17.725 7.93-23.927 7.93"/><path d="M65.259 27.708h.01-.01zm1.816.513c-.447 0-.901.113-1.316.353a2.624 2.624 0 0 0-1.231 1.605 2.626 2.626 0 0 0 .264 2.006 2.645 2.645 0 0 0 4.84-.638 2.623 2.623 0 0 0-.263-2.005 2.646 2.646 0 0 0-2.294-1.321zm.013 7.284a4.647 4.647 0 0 1-4.03-2.32 4.62 4.62 0 0 1-.463-3.524 4.616 4.616 0 0 1 2.164-2.819 4.619 4.619 0 0 1 3.523-.463 4.611 4.611 0 0 1 2.819 2.163 4.61 4.61 0 0 1 .464 3.522 4.61 4.61 0 0 1-2.163 2.82 4.619 4.619 0 0 1-2.314.621zM66.61 66.323c-6.202 0-14.965-2.757-23.926-7.93-7.114-4.108-13.31-9.214-17.002-14.007a1 1 0 0 1 1.585-1.22c3.538 4.595 9.522 9.512 16.417 13.494 14.504 8.374 26.833 9.521 29.248 5.34 1.23-2.128 0-5.718-3.375-9.85-3.63-4.447-9.267-8.997-15.873-12.81C39.178 30.965 26.85 29.817 24.435 34c-.466.807-.583 1.826-.349 3.027a1 1 0 1 1-1.963.383c-.329-1.689-.135-3.172.58-4.41 3.365-5.824 17.412-3.804 31.981 4.607 6.81 3.933 12.642 8.648 16.422 13.278 3.986 4.882 5.25 9.185 3.56 12.115-1.297 2.243-4.175 3.322-8.056 3.323"/><path d="M23.323 42.926a2.648 2.648 0 0 0 3.611-.968 2.645 2.645 0 0 0-.968-3.61 2.645 2.645 0 0 0-3.874 2.974c.183.68.62 1.25 1.231 1.604m1.313 2.353c-.787 0-1.584-.2-2.313-.621a4.611 4.611 0 0 1-2.163-2.82 4.612 4.612 0 0 1 .464-3.522 4.65 4.65 0 0 1 6.342-1.7 4.648 4.648 0 0 1 1.7 6.342 4.647 4.647 0 0 1-4.03 2.32"/><ellipse opacity=".2" cx="49" cy="48" rx="11" ry="29"/><ellipse opacity=".2" transform="rotate(60 49 48)" cx="49" cy="48" rx="11" ry="29"/><ellipse opacity=".2" transform="rotate(120 49 48)" cx="49" cy="48" rx="11" ry="29"/></g></svg>