<svg width="96" height="96" viewBox="0 0 96 96" xmlns="http://www.w3.org/2000/svg"><title>B41FCCF9-40E4-4CD9-B140-1B9FBB411FDF</title><g transform="translate(18 21)" fill="#FFF" fill-rule="evenodd"><path d="M10.832 53.997a1 1 0 0 1-.985-.834 10.99 10.99 0 0 0-9.002-9.009 1 1 0 0 1 .334-1.972 12.989 12.989 0 0 1 10.64 10.65 1 1 0 0 1-.987 1.165M49.18 53.997a1 1 0 0 1-.987-1.166 12.989 12.989 0 0 1 10.64-10.649 1 1 0 0 1 .333 1.972 10.99 10.99 0 0 0-9.001 9.01 1 1 0 0 1-.985.833M1.011 19.83a1 1 0 0 1-.166-1.987 10.988 10.988 0 0 0 9.002-9.009 1 1 0 1 1 1.973.331 12.99 12.99 0 0 1-10.642 10.65.95.95 0 0 1-.167.014M59.001 19.83a.95.95 0 0 1-.167-.015 12.99 12.99 0 0 1-10.642-10.65 1 1 0 0 1 1.973-.33 10.988 10.988 0 0 0 9.002 9.008 1 1 0 0 1-.166 1.986M13 14c-.13 0-.26-.02-.38-.08-.13-.05-.23-.12-.33-.21-.18-.19-.29-.45-.29-.71 0-.13.03-.26.08-.38.05-.13.12-.23.21-.33.1-.09.2-.16.33-.21.36-.15.81-.07 1.09.21.18.19.29.45.29.71 0 .26-.11.52-.29.71-.19.18-.45.29-.71.29M15.78 13c0-.55.45-1 1-1s1 .45 1 1-.45 1-1 1-1-.45-1-1m3.78 0c0-.55.44-1 1-1 .55 0 1 .45 1 1s-.45 1-1 1c-.56 0-1-.45-1-1m3.77 0c0-.55.45-1 1-1 .56 0 1 .45 1 1s-.44 1-1 1c-.55 0-1-.45-1-1m3.78 0c0-.55.45-1 1-1s1 .45 1 1-.45 1-1 1-1-.45-1-1m3.78 0c0-.55.45-1 1-1s1 .45 1 1-.45 1-1 1-1-.45-1-1m3.78 0c0-.55.44-1 1-1 .55 0 1 .45 1 1s-.45 1-1 1c-.56 0-1-.45-1-1m3.77 0c0-.55.45-1 1-1 .56 0 1 .45 1 1s-.44 1-1 1c-.55 0-1-.45-1-1m3.78 0c0-.55.45-1 1-1s1 .45 1 1-.45 1-1 1-1-.45-1-1M47 14c-.13 0-.26-.03-.38-.08s-.23-.12-.33-.21l-.12-.15a.757.757 0 0 1-.09-.18.636.636 0 0 1-.06-.18c-.01-.07-.02-.13-.02-.2 0-.26.11-.52.29-.71.1-.09.21-.16.33-.21.37-.16.81-.06 1.09.21.18.19.29.45.29.71 0 .07-.01.13-.02.2-.01.06-.03.12-.06.18-.02.06-.05.12-.09.18-.03.05-.08.1-.12.15-.19.18-.45.29-.71.29M5 23c-.13 0-.26-.03-.38-.08-.13-.05-.23-.12-.33-.21-.18-.19-.29-.45-.29-.71 0-.26.11-.52.29-.71.1-.09.2-.16.33-.21.24-.11.52-.11.76 0 .12.05.23.12.33.21.18.19.29.45.29.71 0 .26-.11.52-.29.71-.1.09-.21.16-.33.21-.12.05-.25.08-.38.08M4 25.6c0-.55.45-1 1-1s1 .45 1 1-.45 1-1 1-1-.45-1-1m0 3.6c0-.55.45-1 1-1s1 .45 1 1-.45 1-1 1-1-.45-1-1m0 3.6c0-.55.45-1 1-1s1 .45 1 1-.45 1-1 1-1-.45-1-1m0 3.6c0-.55.45-1 1-1s1 .45 1 1-.45 1-1 1-1-.45-1-1M5 41c-.13 0-.26-.03-.38-.08-.13-.05-.23-.12-.33-.21-.18-.19-.29-.45-.29-.71 0-.26.11-.52.29-.71.1-.09.2-.16.33-.21a1 1 0 0 1 .76 0c.12.05.23.12.33.21.18.19.29.45.29.71 0 .26-.11.52-.29.71-.1.09-.21.16-.33.21-.12.05-.25.08-.38.08M55 23c-.26 0-.52-.11-.71-.29-.18-.19-.29-.45-.29-.71 0-.26.11-.52.29-.71.38-.37 1.04-.37 1.42 0 .18.19.29.45.29.71 0 .26-.11.52-.29.71-.19.18-.45.29-.71.29M54 25.6c0-.55.45-1 1-1s1 .45 1 1-.45 1-1 1-1-.45-1-1m0 3.6c0-.55.45-1 1-1s1 .45 1 1-.45 1-1 1-1-.45-1-1m0 3.6c0-.55.45-1 1-1s1 .45 1 1-.45 1-1 1-1-.45-1-1m0 3.6c0-.55.45-1 1-1s1 .45 1 1-.45 1-1 1-1-.45-1-1M55 41c-.26 0-.52-.11-.71-.29-.09-.1-.16-.2-.21-.33A.995.995 0 0 1 54 40c0-.07.01-.13.02-.2.01-.06.03-.12.06-.18.02-.06.05-.12.09-.18.03-.05.08-.1.12-.15.38-.37 1.04-.37 1.42 0 .04.05.09.1.12.15.04.06.07.12.09.18.03.06.05.12.06.18.01.07.02.13.02.2 0 .13-.03.26-.08.38-.05.13-.12.23-.21.33-.19.18-.45.29-.71.29M13 50c-.26 0-.52-.11-.71-.29-.18-.19-.29-.45-.29-.71 0-.26.11-.52.29-.71.1-.09.2-.16.33-.21.36-.15.81-.07 1.09.21.18.19.29.45.29.71 0 .26-.11.52-.29.71-.19.18-.45.29-.71.29M15.78 49c0-.55.45-1 1-1s1 .45 1 1-.45 1-1 1-1-.45-1-1m3.78 0c0-.55.44-1 1-1 .55 0 1 .45 1 1s-.45 1-1 1c-.56 0-1-.45-1-1m3.77 0c0-.55.45-1 1-1 .56 0 1 .45 1 1s-.44 1-1 1c-.55 0-1-.45-1-1m3.78 0c0-.55.45-1 1-1s1 .45 1 1-.45 1-1 1-1-.45-1-1m3.78 0c0-.55.45-1 1-1s1 .45 1 1-.45 1-1 1-1-.45-1-1m3.78 0c0-.55.44-1 1-1 .55 0 1 .45 1 1s-.45 1-1 1c-.56 0-1-.45-1-1m3.77 0c0-.55.45-1 1-1 .56 0 1 .45 1 1s-.44 1-1 1c-.55 0-1-.45-1-1m3.78 0c0-.55.45-1 1-1s1 .45 1 1-.45 1-1 1-1-.45-1-1M47 50c-.13 0-.26-.02-.38-.08-.12-.05-.23-.12-.33-.21-.18-.19-.29-.45-.29-.71 0-.13.03-.26.08-.38s.12-.23.21-.33c.1-.09.21-.16.33-.21.37-.16.81-.07 1.09.21.09.1.16.21.21.33.06.12.08.25.08.38 0 .26-.11.52-.29.71-.19.18-.45.29-.71.29"/><path d="M5 10c-1.654 0-3 1.346-3 3v36c0 1.654 1.346 3 3 3h50c1.654 0 3-1.346 3-3V13c0-1.654-1.346-3-3-3H5zm50 44H5c-2.757 0-5-2.243-5-5V13c0-2.757 2.243-5 5-5h50c2.757 0 5 2.243 5 5v36c0 2.757-2.243 5-5 5z"/><rect opacity=".2" x="1" y="9" width="58" height="44" rx="4"/><path d="M38 10a1 1 0 0 1-1-1c0-3.86-3.14-7-7-7s-7 3.14-7 7a1 1 0 0 1-2 0c0-4.962 4.038-9 9-9s9 4.038 9 9a1 1 0 0 1-1 1"/></g></svg>