<svg width="96" height="96" viewBox="0 0 96 96" xmlns="http://www.w3.org/2000/svg" xmlns:xlink="http://www.w3.org/1999/xlink"><title>B2E4C1EC-3521-4F05-87E3-CAAB51E915B7</title><defs><path id="a" d="M0 52h60V0H0z"/></defs><g transform="translate(18 22)" fill="none" fill-rule="evenodd"><path d="M51 52a1 1 0 0 1-1-1v-2a1 1 0 1 1 2 0v2a1 1 0 0 1-1 1z" fill="#FFF"/><path fill="#FFF" opacity=".2" d="M1 1h40v50H1z"/><path d="M48 42h6V3c0-.552-.449-1-1-1h-4c-.551 0-1 .448-1 1v39zm7 2h-8a1 1 0 0 1-1-1V3c0-1.654 1.346-3 3-3h4c1.654 0 3 1.346 3 3v40a1 1 0 0 1-1 1z" fill="#FFF"/><path d="M50.618 48h.764l2-4h-4.764l2 4zM52 50h-2c-.379 0-.725-.214-.895-.553l-3-6A1.001 1.001 0 0 1 47 42h8a.998.998 0 0 1 .894 1.447l-3 6A.998.998 0 0 1 52 50zM55 16h-8a1 1 0 1 1 0-2h8a1 1 0 1 1 0 2M59 20a1 1 0 0 1-1-1V6h-3a1 1 0 1 1 0-2h4a1 1 0 0 1 1 1v14a1 1 0 0 1-1 1M41 48H1a1 1 0 1 1 0-2h40a1 1 0 1 1 0 2M33 44H1a1 1 0 1 1 0-2h32a1 1 0 1 1 0 2M41 8H1a1 1 0 1 1 0-2h40a1 1 0 1 1 0 2" fill="#FFF"/><mask id="b" fill="#fff"><use xlink:href="#a"/></mask><path d="M2 50h38V2H2v48zm39 2H1a1 1 0 0 1-1-1V1a1 1 0 0 1 1-1h40a1 1 0 0 1 1 1v50a1 1 0 0 1-1 1z" fill="#FFF" mask="url(#b)"/><path d="M34 36v4.586L38.586 36H34zm-1 8a1 1 0 0 1-1-1v-8a1 1 0 0 1 1-1h8a1 1 0 0 1 .707 1.707l-8 8A1 1 0 0 1 33 44zM11 18a.997.997 0 0 1-.707-.293l-2-2a.999.999 0 1 1 1.414-1.414l1.094 1.095 2.342-3.903a1 1 0 1 1 1.714 1.03l-3 5A.998.998 0 0 1 11 18M33 16H19a1 1 0 1 1 0-2h14a1 1 0 1 1 0 2M11 28a.997.997 0 0 1-.707-.293l-2-2a.999.999 0 1 1 1.414-1.414l1.094 1.095 2.342-3.903a1 1 0 1 1 1.714 1.03l-3 5A.998.998 0 0 1 11 28M33 26H19a1 1 0 1 1 0-2h14a1 1 0 1 1 0 2M11 38a.997.997 0 0 1-.707-.293l-2-2a.999.999 0 1 1 1.414-1.414l1.094 1.095 2.342-3.903a1 1 0 1 1 1.714 1.03l-3 5A.998.998 0 0 1 11 38M27 36h-8a1 1 0 1 1 0-2h8a1 1 0 1 1 0 2" fill="#FFF" mask="url(#b)"/></g></svg>