<svg xmlns="http://www.w3.org/2000/svg" width="96" height="96" viewBox="0 0 96 96">
    <g fill="none" fill-rule="evenodd">
        <path fill="#844397" fill-rule="nonzero" d="M61 56h-9.999v8a1.001 1.001 0 0 1-1.708.707L40.586 56H15c-2.757 0-5-2.243-5-5V19c0-2.757 2.243-5 5-5h46a5.007 5.007 0 0 1 5.001 5v32c0 2.757-2.244 5-5.001 5zm3-37c0-1.654-1.345-3-3-3H15c-1.654 0-3 1.346-3 3v32c0 1.654 1.346 3 3 3h26c.266 0 .52.105.707.293L49 61.586V55a1 1 0 0 1 1-1h11c1.655 0 3-1.346 3-3V19zM50 38c-2.205 0-4-1.794-4-4s1.795-4 4-4c2.206 0 4 1.794 4 4s-1.794 4-4 4zm0-6c-1.103 0-2 .897-2 2s.897 2 2 2 2-.897 2-2-.897-2-2-2zm-12 6c-2.205 0-4-1.794-4-4s1.795-4 4-4c2.206 0 4 1.794 4 4s-1.794 4-4 4zm0-6c-1.102 0-2 .897-2 2s.898 2 2 2a2.003 2.003 0 0 0 2.001-2c0-1.103-.898-2-2.001-2zm-12 6c-2.205 0-4-1.794-4-4s1.795-4 4-4c2.206 0 4 1.794 4 4s-1.794 4-4 4zm0-6c-1.103 0-2 .897-2 2s.897 2 2 2a2.003 2.003 0 0 0 2.001-2c0-1.103-.898-2-2.001-2z"/>
        <path fill="#FFF" d="M51.026 45.329L49 46.256l.7 3.635 7.943 13.196-5.576.365-2.367 2.395v1.763l1.036.59 10.2 3.459 5.99 2.717 2.174 3.057 2.421 1.48h3.02l8.578-6.112 2.15-2.877-1.324-5.151-.282-3.191-5.419-8.76c-1.847-1.954-2.927-2.93-3.237-2.93-.311 0-1.132-.1-2.462-.3l-1.865.92-2.207-.62h-2.165l-2.039 1.613-2.383-.993-2.17.403-2.073.59-3.814-5.526L52.067 45l-1.04.329z"/>
        <path fill="#844397" fill-rule="nonzero" d="M84.467 61.33c.005.014.016.023.02.035.095.29.168.573.224.85.368 1.462.495 2.715.532 3.25a5.956 5.956 0 0 1-1.895 7.993l-7.707 5.005a5.955 5.955 0 0 1-8.228-1.75l-1.377-2.12c-2.348-.408-4.205-1.297-6.247-2.293-2.473-1.207-5.277-2.573-9.811-3.463-.572-.113-1.135-.516-1.508-1.079-.367-.557-.501-1.191-.376-1.785a5.114 5.114 0 0 1 5.041-4.048c1.144.012 2.167.052 3.061.122-1.982-3.193-5.537-9.32-7.788-13.228a3.495 3.495 0 0 1 1.128-4.675 3.5 3.5 0 0 1 4.835 1.028l3.486 5.368.94-.61a4.542 4.542 0 0 1 5.064.083l1.23-.8a4.536 4.536 0 0 1 5.06.087l.62-.403c1.925-1.25 4.164-.822 6.143 1.174 1.786 1.8 3.556 4.14 6.112 8.075.653 1.006 1.114 2.124 1.441 3.185zm-8.973-9.85c-1.307-1.318-2.53-1.622-3.634-.905l-.336.218 2.603 4.008a1 1 0 1 1-1.678 1.09l-2.762-4.254a2.537 2.537 0 0 0-3.506-.746l-.952.618 3.69 5.683a1 1 0 0 1-1.677 1.09l-3.85-5.93a2.537 2.537 0 0 0-3.506-.745l-.94.61 4.846 7.462a1 1 0 1 1-1.678 1.09l-9.42-14.507a1.497 1.497 0 0 0-2.553 1.558c4.845 8.41 8.077 13.835 8.868 14.88.008.011.012.026.02.038.006.008.015.012.02.02l1.155 1.779a1 1 0 1 1-1.678 1.089l-.91-1.402c-1.108-.174-2.635-.28-4.501-.3a3.11 3.11 0 0 0-3.063 2.461c-.034.16.193.447.325.492 4.777.938 7.705 2.366 10.289 3.626 2.77 1.349 4.958 2.416 8.568 2.325a1 1 0 0 1 .05 2c-.25.006-.478-.007-.718-.011l.524.808a3.952 3.952 0 0 0 5.462 1.16l7.707-5.005c1.763-1.145 2.293-3.462 1.263-5.264a4.832 4.832 0 0 1-.655.512l-.346.224a1 1 0 0 1-1.09-1.677l.346-.225c.37-.24 1.432-.96.895-3.02-.285-1.03-.7-2.135-1.323-3.095-2.476-3.812-4.173-6.06-5.855-7.755z"/>
    </g>
</svg>
